<?xml version="1.0" encoding="utf-8"?>
<!-- Generator: Adobe Illustrator 23.0.3, SVG Export Plug-In . SVG Version: 6.00 Build 0)  -->
<svg version="1.1" id="Capa_1" xmlns="http://www.w3.org/2000/svg" xmlns:xlink="http://www.w3.org/1999/xlink" x="0px" y="0px"
	 viewBox="0 0 758 403" style="enable-background:new 0 0 758 403;" xml:space="preserve">
<g>
	<g>
		<path d="M52.57,62.36h47.96v9.39H65.09v50.27h29.5v9.23h-29.5v64.6H52.57V62.36z"/>
		<path d="M116.18,62.36h30.16c11.97,0,20.49,2.88,25.55,8.65c5.05,5.77,7.58,14.2,7.58,25.3c0,8.46-1.38,15.44-4.12,20.93
			c-2.75,5.5-7.53,8.96-14.34,10.38l20.44,68.23h-12.2l-19.61-65.59h-20.93v65.59h-12.53V62.36z M145.68,121.03
			c8.02,0,13.62-1.98,16.81-5.93c3.19-3.96,4.78-10.22,4.78-18.79c0-8.68-1.51-14.94-4.53-18.79c-3.02-3.84-8.6-5.77-16.73-5.77
			h-17.3v49.28H145.68z"/>
		<path d="M221.49,62.36h13.18l28.35,133.49h-12.36l-6.59-35.76h-31.81l-6.76,35.76h-12.2L221.49,62.36z M242.42,151.03L228.25,79
			l-14.17,72.02H242.42z"/>
		<path d="M279.17,62.36h9.06l42.52,103.66V62.36h10.88v133.49h-8.9L290.05,91.04v104.82h-10.88V62.36z"/>
		<path d="M369.57,186.46c-5-7.36-7.5-17.58-7.5-30.65v-53.07c0-13.4,2.5-23.7,7.5-30.9c5-7.19,13.76-10.79,26.29-10.79
			c11.43,0,19.55,3.24,24.39,9.72c4.83,6.48,7.25,15.88,7.25,28.18v8.08h-11.87v-7.75c0-6.37-0.49-11.56-1.48-15.57
			c-0.99-4.01-2.91-7.11-5.77-9.31c-2.86-2.2-6.98-3.3-12.36-3.3c-5.82,0-10.27,1.21-13.35,3.63c-3.08,2.42-5.17,5.74-6.26,9.97
			c-1.1,4.23-1.65,9.64-1.65,16.23v56.86c0,10.33,1.57,17.86,4.7,22.58c3.13,4.73,8.65,7.09,16.56,7.09c7.8,0,13.02-2.39,15.66-7.17
			s3.96-12.06,3.96-21.84v-8.73h11.87v7.91c0,12.75-2.36,22.58-7.09,29.5c-4.73,6.92-12.91,10.38-24.56,10.38
			C383.33,197.5,374.57,193.82,369.57,186.46z"/>
		<path d="M447.44,62.36h12.53v133.49h-12.53V62.36z"/>
		<path d="M488.14,187.86c-5.5-6.43-8.63-15.3-9.39-26.62l11.04-3.3c0.99,9.45,3.1,16.7,6.35,21.75c3.24,5.05,8.6,7.58,16.07,7.58
			c12.53,0,18.79-6.43,18.79-19.28c0-5.49-1.29-10.33-3.87-14.5c-2.58-4.17-6.73-8.95-12.44-14.34l-23.57-22.58
			c-4.28-3.96-7.39-8.1-9.31-12.44c-1.92-4.34-2.88-9.15-2.88-14.42c0-9.12,2.72-16.18,8.16-21.18c5.44-5,12.77-7.5,22-7.5
			c9.89,0,17.47,2.64,22.74,7.91c5.27,5.27,8.35,13.9,9.23,25.87l-10.71,2.8c-0.66-9.01-2.55-15.71-5.69-20.11
			c-3.13-4.39-8.32-6.59-15.57-6.59c-5.71,0-10.28,1.48-13.68,4.45c-3.41,2.97-5.11,7.36-5.11,13.18c0,3.74,0.71,7.09,2.14,10.05
			c1.43,2.97,3.84,6.1,7.25,9.39l23.57,22.25c6.04,5.71,10.79,11.56,14.26,17.55c3.46,5.99,5.19,12.44,5.19,19.37
			c0,9.67-2.8,17.14-8.41,22.41s-13.02,7.91-22.25,7.91C501.6,197.5,493.64,194.29,488.14,187.86z"/>
		<path d="M564.2,186.46c-5-7.36-7.5-17.58-7.5-30.65v-53.07c0-13.4,2.5-23.7,7.5-30.9c5-7.19,13.76-10.79,26.29-10.79
			c11.43,0,19.55,3.24,24.39,9.72c4.83,6.48,7.25,15.88,7.25,28.18v8.08h-11.87v-7.75c0-6.37-0.49-11.56-1.48-15.57
			c-0.99-4.01-2.91-7.11-5.77-9.31c-2.86-2.2-6.98-3.3-12.36-3.3c-5.82,0-10.27,1.21-13.35,3.63c-3.08,2.42-5.17,5.74-6.26,9.97
			c-1.1,4.23-1.65,9.64-1.65,16.23v56.86c0,10.33,1.57,17.86,4.7,22.58c3.13,4.73,8.65,7.09,16.56,7.09c7.8,0,13.02-2.39,15.66-7.17
			s3.96-12.06,3.96-21.84v-8.73h11.87v7.91c0,12.75-2.36,22.58-7.09,29.5c-4.73,6.92-12.91,10.38-24.56,10.38
			C577.96,197.5,569.2,193.82,564.2,186.46z"/>
		<path d="M646.77,186.79c-5.22-7.14-7.83-17.25-7.83-30.32v-55.38c0-12.96,2.64-22.88,7.91-29.75c5.27-6.87,14.12-10.3,26.53-10.3
			c12.2,0,20.93,3.46,26.2,10.38c5.27,6.92,7.91,16.81,7.91,29.67v55.54c0,13.08-2.58,23.16-7.75,30.24
			c-5.17,7.09-13.96,10.63-26.37,10.63C660.86,197.5,651.98,193.93,646.77,186.79z M690.19,180.28c3.08-4.78,4.62-11.78,4.62-21.01
			V98.78c0-9.23-1.51-16.15-4.53-20.77c-3.02-4.61-8.65-6.92-16.89-6.92c-8.35,0-14.07,2.28-17.14,6.84
			c-3.08,4.56-4.61,11.51-4.61,20.85v60.48c0,9.34,1.54,16.37,4.61,21.1c3.08,4.73,8.79,7.09,17.14,7.09
			C681.51,187.45,687.12,185.06,690.19,180.28z"/>
	</g>
	<g>
		<path d="M50.5,209.96h35.81c14.24,0,25,2.52,32.28,7.55c7.28,5.03,10.92,13.97,10.92,26.82c0,8.67-1.12,15.58-3.37,20.72
			s-6.42,9.15-12.53,12.04l17.83,62.95h-29.71l-14.29-58.29h-8.19v58.29H50.5V209.96z M87.28,265.2c5.78,0,9.82-1.53,12.12-4.58
			c2.3-3.05,3.45-7.63,3.45-13.73c0-5.89-1.07-10.3-3.21-13.25c-2.14-2.94-5.84-4.42-11.08-4.42h-9.31v35.97H87.28z"/>
		<path d="M146.85,209.96h35.81c14.24,0,25,2.52,32.28,7.55c7.28,5.03,10.92,13.97,10.92,26.82c0,8.67-1.12,15.58-3.37,20.72
			s-6.42,9.15-12.53,12.04l17.83,62.95h-29.71l-14.29-58.29h-8.19v58.29h-28.75V209.96z M183.63,265.2c5.78,0,9.82-1.53,12.12-4.58
			c2.3-3.05,3.45-7.63,3.45-13.73c0-5.89-1.07-10.3-3.21-13.25c-2.14-2.94-5.84-4.42-11.08-4.42h-9.31v35.97H183.63z"/>
		<path d="M261.51,209.96h32.76l24.25,130.08h-26.5l-4.34-27.46h-19.11l-4.5,27.46h-27.14L261.51,209.96z M284.95,295.39
			l-6.91-50.75l-6.91,50.75H284.95z"/>
		<path d="M331.68,209.96h20.23l26.66,62.63v-62.63h23.77v130.08h-19.43l-26.66-67.45v67.45h-24.57V209.96z"/>
		<path d="M421.77,209.96h32.92c11.24,0,20.02,1.39,26.34,4.18c6.32,2.79,10.78,7.15,13.41,13.09c2.62,5.94,3.93,13.89,3.93,23.85
			v47.21c0,10.06-1.31,18.09-3.93,24.09c-2.62,6-7.07,10.44-13.33,13.33s-14.96,4.34-26.1,4.34h-33.24V209.96z M455.01,320.12
			c4.18,0,7.25-0.61,9.23-1.85c1.98-1.23,3.24-3,3.77-5.3c0.54-2.3,0.8-5.7,0.8-10.2v-56.69c0-4.17-0.3-7.36-0.88-9.55
			c-0.59-2.19-1.87-3.83-3.85-4.9c-1.98-1.07-5.06-1.61-9.23-1.61h-4.34v90.09H455.01z"/>
		<path d="M523.1,331.12c-6-7.23-8.99-17.91-8.99-32.04v-48.34c0-14.13,3-24.76,8.99-31.88c6-7.12,16-10.68,30.03-10.68
			c14.13,0,24.22,3.59,30.27,10.76c6.05,7.17,9.07,17.77,9.07,31.8v48.34c0,14.13-3.03,24.81-9.07,32.04
			c-6.05,7.23-16.14,10.84-30.27,10.84C539.11,341.96,529.1,338.35,523.1,331.12z M561.16,317.47c1.28-2.73,1.93-6.45,1.93-11.16
			v-62.63c0-4.82-0.64-8.56-1.93-11.24c-1.29-2.67-3.96-4.01-8.03-4.01c-3.85,0-6.42,1.36-7.71,4.09
			c-1.29,2.73-1.93,6.45-1.93,11.16v62.63c0,4.71,0.59,8.43,1.77,11.16c1.18,2.73,3.8,4.09,7.87,4.09
			C557.2,321.56,559.88,320.2,561.16,317.47z"/>
		<path d="M611.75,209.96h30.83l14.29,75.64l15.42-75.64H702l2.25,130.08h-20.39l-2.41-86.56l-15.1,86.56H648.2l-16.06-87.2
			l-1.93,87.2H609.5L611.75,209.96z"/>
	</g>
</g>
</svg>
